<svg xmlns="http://www.w3.org/2000/svg" width="194" height="80" fill="none" aria-label="logo" class="logo" viewBox="0 0 194 80">
  <path fill="black" d="M36.2 48.69a7.47 7.47 0 0 1-3.57-.79 5.35 5.35 0 0 1-2.23-2.31 8.02 8.02 0 0 1-.78-3.67v-4.98c0-1.44.26-2.67.78-3.67a5.3 5.3 0 0 1 2.23-2.31c.98-.54 2.17-.8 3.56-.8a6 6 0 0 1 5.28 2.87 9 9 0 0 1 1.23 3.4h-3.55a4.37 4.37 0 0 0-.62-1.54 2.9 2.9 0 0 0-1.01-.98 2.7 2.7 0 0 0-1.33-.33c-.96 0-1.7.3-2.23.88a3.57 3.57 0 0 0-.79 2.48v4.98c0 1.06.26 1.89.79 2.47.53.58 1.27.88 2.23.88.75 0 1.38-.25 1.9-.74a4 4 0 0 0 1.06-2.11h3.55a9.38 9.38 0 0 1-1.24 3.4 6.02 6.02 0 0 1-2.2 2.13c-.9.5-1.92.74-3.07.74Zm6.62-.19 6.95-18.16h2.17l6.94 18.16H55.2l-4.35-12.4-4.34 12.4h-3.69Zm3.34-2.91v-3.3h9.55v3.3h-9.55Zm15.82-4.4v-3.3h6.32c.53 0 .95-.19 1.27-.58.33-.39.5-.9.5-1.55 0-.64-.16-1.15-.49-1.55a1.55 1.55 0 0 0-1.28-.58h-6.32v-3.3h6.6c1 0 1.88.23 2.63.68a4.57 4.57 0 0 1 1.76 1.9c.41.8.62 1.76.62 2.85a6 6 0 0 1-.64 2.86 4.6 4.6 0 0 1-1.74 1.9c-.75.45-1.63.67-2.64.67h-6.6Zm-1.36 7.31V30.33h3.42V48.5h-3.42Zm9.59 0-4.41-7.87 3.66-.57 4.9 8.44H70.2Zm6.58 0V30.34h3.42V48.5h-3.42Zm1.52 0v-3.3h10.64v3.3H78.31Zm20.34-7.3v-3.3h6.32c.54 0 .96-.2 1.28-.59.32-.39.49-.9.5-1.55 0-.64-.17-1.15-.5-1.55-.3-.39-.74-.58-1.28-.58h-6.32v-3.3h6.6c1 0 1.88.23 2.63.68a4.57 4.57 0 0 1 1.76 1.9c.42.8.63 1.76.63 2.85a6 6 0 0 1-.64 2.86 4.6 4.6 0 0 1-1.75 1.9c-.75.45-1.63.67-2.63.67h-6.6Zm-1.36 7.3V30.33h3.42V48.5H97.3Zm9.6 0-4.41-7.87 3.65-.57 4.9 8.44h-4.15Zm4.2 0 6.94-18.16h2.18l6.94 18.16h-3.68l-4.35-12.4-4.34 12.4h-3.69Zm3.34-2.91v-3.3h9.55v3.3h-9.55Zm5.6-16.73v-3.42h3.42v3.42h-3.42Zm-5.24 0v-3.42h3.42v3.42h-3.42Zm14.1 19.64V30.34h3.42V48.5h-3.42Zm1.25-7.2V38h9.3v3.3h-9.3Zm0-7.66v-3.3h10.67v3.3h-10.67ZM146.5 48.5V31.83h3.42V48.5h-3.42Zm-4.95-14.86v-3.3h13.31v3.3h-13.3Zm18.1-3.3V48.5h-3.55V30.34h3.55Zm3.23 18.15V30.34h4.18l6.76 13.91-.3.33V30.34h3.27V48.5h-4.2l-6.74-13.7.3-.33V48.5h-3.27Zm24.01-10.14h6.3v3.54a7.5 7.5 0 0 1-.83 3.59 5.92 5.92 0 0 1-2.3 2.37c-.99.56-2.15.84-3.48.84a7.52 7.52 0 0 1-3.52-.79 5.81 5.81 0 0 1-2.33-2.23 6.7 6.7 0 0 1-.83-3.38v-5.35c0-1.37.28-2.56.83-3.57a5.87 5.87 0 0 1 2.3-2.36 6.9 6.9 0 0 1 3.48-.85 6.6 6.6 0 0 1 5.28 2.56 6.8 6.8 0 0 1 1.25 2.83h-3.7a2.32 2.32 0 0 0-1.1-1.36 3.32 3.32 0 0 0-1.73-.49c-.93 0-1.67.3-2.23.89a3.3 3.3 0 0 0-.83 2.35v5.35c0 .86.28 1.55.86 2.08.57.51 1.33.77 2.27.77a3 3 0 0 0 2.22-.84 3.2 3.2 0 0 0 .84-2.36v-.3h-2.75v-3.3Z"/>
  <path fill="black" fill-opacity=".5" d="M40 0a40 40 0 0 0 0 80v-8a32 32 0 1 1 0-64V0Z"/>
  <path fill="black" fill-opacity=".4" d="M40 72a32 32 0 1 1 0-64v6.4a25.6 25.6 0 0 0 0 51.2V72Z"/>
</svg>
