<svg xmlns="http://www.w3.org/2000/svg" width="46" height="40" fill="none" viewBox="0 0 46 40">
  <path fill="currentColor" d="M9.85 2.7c5.2 3.9 10.8 11.83 12.86 16.09 2.06-4.26 7.66-12.19 12.87-16.1 3.76-2.82 9.85-5 9.85 1.94 0 1.4-.8 11.66-1.26 13.33-1.62 5.8-7.53 7.27-12.79 6.37 9.19 1.57 11.53 6.75 6.48 11.93-9.59 9.83-13.78-2.47-14.85-5.62-.2-.58-.3-.85-.3-.62 0-.23-.09.04-.29.62-1.07 3.15-5.26 15.45-14.85 5.62-5.05-5.18-2.7-10.36 6.48-11.93-5.26.9-11.17-.58-12.79-6.37C.8 16.29 0 6.02 0 4.63 0-2.3 6.09-.13 9.85 2.7Z"/>
</svg>
