<svg xmlns="http://www.w3.org/2000/svg" width="64" height="64" fill="none" viewBox="0 0 64 64">
  <path fill="#C4313D" d="M0 0h64v64H0z"/>
  <path fill="#fff" fill-opacity=".6" d="M30 8a24 24 0 0 0 0 48v-4.8a19.2 19.2 0 0 1 0-38.4V8Z" style="mix-blend-mode:overlay"/>
  <path fill="#fff" fill-opacity=".4" d="M30 51.2a19.2 19.2 0 1 1 0-38.4v3.6c-2.02 0-4.01.64-5.88 1.4a15.36 15.36 0 0 0-8.31 8.32A15.63 15.63 0 0 0 14.4 32c0 2.02.64 4.01 1.4 5.88a15.36 15.36 0 0 0 8.32 8.31A15.7 15.7 0 0 0 30 47.6v3.6Z" style="mix-blend-mode:overlay"/>
  <path fill="#fff" d="M43.03 34.04v-3.3h6.32c.53 0 .96-.2 1.27-.58.33-.4.5-.91.5-1.55s-.16-1.16-.48-1.55c-.32-.4-.75-.59-1.29-.59h-6.32v-3.3h6.6c1 0 1.88.23 2.63.68a4.57 4.57 0 0 1 1.76 1.9c.42.81.62 1.77.62 2.86 0 1.09-.2 2.04-.63 2.86a4.6 4.6 0 0 1-1.75 1.9c-.75.44-1.63.67-2.64.67h-6.59Zm-1.36 7.3V23.17h3.42v18.17h-3.42Zm9.59 0-4.4-7.86 3.65-.58 4.9 8.44h-4.15Zm-18.69.19a7.47 7.47 0 0 1-3.56-.79 5.35 5.35 0 0 1-2.24-2.3 8.02 8.02 0 0 1-.77-3.68v-4.98c0-1.44.26-2.66.77-3.67.52-1 1.27-1.78 2.24-2.31a7.4 7.4 0 0 1 3.56-.8 6 6 0 0 1 5.28 2.87c.6.93 1 2.07 1.22 3.4h-3.54a4.37 4.37 0 0 0-.63-1.54 2.9 2.9 0 0 0-1-.97 2.6 2.6 0 0 0-1.33-.34c-.96 0-1.7.3-2.24.89-.52.58-.78 1.4-.78 2.47v4.98c0 1.07.26 1.9.78 2.48a2.9 2.9 0 0 0 2.24.87c.75 0 1.38-.25 1.9-.74a4 4 0 0 0 1.06-2.1h3.54a9.38 9.38 0 0 1-1.23 3.39 6.02 6.02 0 0 1-2.21 2.13c-.9.5-1.91.74-3.06.74Z" style="mix-blend-mode:overlay"/>
</svg>
