<svg width="38" height="40" viewBox="0 0 38 40" fill="none" xmlns="http://www.w3.org/2000/svg">
<title>Mastodon</title>
<path fill-rule="evenodd" clip-rule="evenodd" d="M26.706 30.4883C31.7178 29.8901 36.0831 26.8006 36.6297 23.98H36.6314C37.4951 19.5354 37.4245 13.1322 37.4245 13.1322C37.4245 4.45498 31.7385 1.91199 31.7385 1.91199C28.8714 0.594802 23.9492 0.0413775 18.8356 0H18.7098C13.5962 0.0413775 8.67743 0.594802 5.81031 1.91199C5.81031 1.91199 0.126071 4.45498 0.126071 13.1322C0.126071 13.6604 0.123271 14.2161 0.120356 14.7945C0.112301 16.3928 0.103369 18.1652 0.150208 20.0147C0.357096 28.4988 1.70704 36.8622 9.55153 38.9414C13.1686 39.8983 16.2754 40.1 18.777 39.9621C23.313 39.7086 25.8594 38.3414 25.8594 38.3414L25.7095 35.0519C25.7095 35.0519 22.4665 36.0726 18.8287 35.9484C15.2202 35.8243 11.4118 35.5588 10.8291 31.1314C10.7756 30.7418 10.748 30.3263 10.748 29.8901C10.748 29.8901 14.2893 30.7538 18.7753 30.9607C21.52 31.0866 24.094 30.7987 26.706 30.4883ZM30.7179 24.3127V13.8063C30.7179 11.6581 30.1713 9.9513 29.0731 8.68928C27.9404 7.42727 26.4577 6.78074 24.6164 6.78074C22.4855 6.78074 20.8735 7.59795 19.8063 9.23581L18.7684 10.9737L17.7339 9.23581C16.665 7.59795 15.053 6.78074 12.9238 6.78074C11.0825 6.78074 9.59636 7.42727 8.4671 8.68928C7.36887 9.9513 6.82062 11.6581 6.82062 13.8063V24.3127H10.9842V14.1149C10.9842 11.965 11.8876 10.8737 13.6979 10.8737C15.6978 10.8737 16.7012 12.1684 16.7012 14.727V20.3095H20.839V14.727C20.839 12.1667 21.8424 10.8737 23.8423 10.8737C25.6508 10.8737 26.556 11.965 26.556 14.1149V24.3127H30.7179Z" fill="currentColor"/>
</svg>
